<svg version="1.1" id="Layer_1" xmlns="http://www.w3.org/2000/svg" xmlns:xlink="http://www.w3.org/1999/xlink" x="0px" y="0px"
	 viewBox="0 0 450 175" style="enable-background:new 0 0 450 175;" xml:space="preserve">
<style type="text/css">
	.st0{fill:#FFFFFF;}
</style>
<g>
	<path class="st0" d="M113.6,96.9c-0.2,0-0.5,0-0.7,0c-0.5,0-1,0-1.4,0c-0.9,0-1.5-0.5-1.9-1.3c-0.1-0.3-0.2-0.5-0.3-0.8
		c-0.2-0.7-0.2-1.4-0.3-2.1c0-2.4-0.1-4.8-0.1-7.2c-0.1-3.8-0.1-7.6-0.1-11.4c-0.1-5.9-0.2-11.8-0.2-17.7c0-0.9,0-1.8,0-2.8
		c-0.1-2.5-0.8-4.7-2.2-6.7c-0.5-0.8-1.1-1.5-1.7-2.2c-2.9-3.2-5.8-6.3-8.6-9.6c-0.2-0.3-0.5-0.5-0.8-0.7c-0.2-0.2-0.5-0.2-0.8-0.3
		c-0.4,0-0.7,0-1.1,0.1c-0.4,0.2-0.8,0.3-1.2,0.5c-0.9,0.4-1.7,0.9-2.6,1.3c-2.4,1.3-4.8,2.6-7.1,4c-0.9,0.5-1.8,1.1-2.6,1.7
		c-0.7,0.5-1.3,1.1-1.8,1.7c-1.1,1.5-1.4,3.1-0.9,4.9c0.2,0.7,0.4,1.3,0.7,1.9c1.2,2.5,2.6,4.9,4.2,7.2c0.1,0.2,0.3,0.4,0.4,0.6
		c0.1,0.1,0.2,0.2,0.4,0.3c0.5,0.3,0.9,0.1,1.1-0.3c0.1-0.2,0.1-0.5,0.1-0.7c0-0.7,0-1.4-0.1-2.2c0-0.4,0-0.7,0-1.1
		c0-1.1,0.4-2.1,1.3-2.9c0.3-0.2,0.5-0.5,0.8-0.7c1.8-1.5,3.5-2.9,5.4-4.2c0.4-0.3,0.8-0.6,1.2-0.8c0.3-0.2,0.6-0.3,1-0.4
		c0.6-0.2,1.1,0,1.5,0.4c0.3,0.3,0.4,0.6,0.6,0.9c0.1,0.3,0.2,0.7,0.3,1c0.3,1,0.4,2,0.4,3.1c0.1,1.7,0.2,3.4,0.2,5
		c0.1,3.2,0.2,6.4,0.4,9.6l0,0.5c0.1,4.3,0.3,8.6,0.4,13c0,1,0,2,0.1,3c0.2,4,0.2,8.1,0.2,12.1c0,0.8,0,1.5-0.1,2.3
		c-0.1,0.8-0.2,1.6-0.5,2.3c-0.2,0.5-0.5,0.9-0.9,1.2c-0.7,0.6-1.5,1-2.4,1.2c-0.4,0.1-0.9,0.1-1.3,0.1c-0.4,0-0.7-0.2-0.9-0.5
		c-0.2-0.4-0.4-0.8-0.5-1.2c-0.2-0.7-0.4-1.4-0.5-2.1c-0.4-1.9-0.7-3.8-1.1-5.7c-0.6-3.3-1.3-6.5-1.9-9.8c-0.3-1.7-0.6-3.4-0.7-5.1
		c-0.1-0.6-0.1-1.1-0.1-1.7c0-0.8,0.3-1.4,0.8-1.9c0.5-0.4,1-0.9,1.4-1.3c1.4-1.1,2.8-2.3,4.2-3.4c0.4-0.3,0.7-0.6,1.1-0.9
		c0.1-0.1,0.3-0.3,0.4-0.5c0.2-0.3,0.1-0.7-0.2-1c-0.2-0.2-0.5-0.3-0.8-0.3c-0.3,0-0.6,0-1-0.1c-4.9-0.1-9.8,0.1-14.6,0.3
		c-0.1,0-0.2,0-0.2,0c-0.8,0.1-1.6,0.1-2.4,0.2c-0.4,0-0.8,0.1-1.2,0.1c-1.4,0.1-2.8,0.2-4.2,0.4c-1.7,0.1-3.3,0.3-5,0.8
		c-0.1,0-0.3,0.1-0.5,0.1c-0.1,0-0.2-0.1-0.3-0.2c-0.1-0.1-0.1-0.3-0.1-0.5c0-0.8,0-1.7,0-2.5c0-3.2,0.1-6.5,0.1-9.7
		c0-8,0-16.1,0.1-24.1c0-2.4,0-4.9,0-7.3c0-0.5,0.1-0.9,0.4-1.2c0.6-0.6,1.1-1.3,1.6-1.9c0.9-1.1,1.9-2.2,2.8-3.3
		c0.2-0.2,0.4-0.5,0.5-0.8c0.1-0.2-0.1-0.5-0.2-0.5c-0.4,0-0.9,0-1.3,0c-0.7,0.1-1.4,0.2-2.1,0.2c-2.3,0.2-4.5,0.4-6.8,0.5
		c-0.6,0-1.2,0-1.8,0.1c-1.3,0-2.6,0.1-3.8,0.1c-1.7,0-3.4,0-5,0c-0.3,0-0.6,0-1,0c-0.3,0-0.5,0.4-0.4,0.7c0.2,0.5,0.5,0.8,0.8,1.2
		c0.9,1,1.8,2,2.7,2.9c1.1,1.2,0.9,1.1,0.9,2.5c0,16.7,0,33.4,0,50.1c0,0.3,0,0.6,0,1c0,0.3-0.1,0.5-0.3,0.7
		c-0.3,0.2-0.5,0.5-0.8,0.7c-1.5,1.3-3,2.5-4.5,3.8c-1.2,1-2.5,2-3.7,3c-1.4,1.1-2.9,2.2-4.4,3.1c-1.1,0.6-2.2,1.2-3.5,1.7
		c-0.2,0.1-0.4,0.1-0.6,0.2c-0.2,0-0.4-0.1-0.4-0.3c0-0.4-0.1-0.9-0.1-1.3c0-7,0-13.9,0-20.9c0-11.2,0-22.4,0-33.6c0-0.7,0-1.4,0-2
		c0-0.7,0.2-1.3,0.7-1.9c0.3-0.4,0.6-0.7,0.9-1.1c0.6-0.7,1.1-1.3,1.7-2c0.1-0.2,0.2-0.3,0.2-0.5c0-0.1-0.1-0.3-0.2-0.3
		c-0.1,0-0.2-0.1-0.3-0.1c-0.5,0-1,0-1.6,0c-5.2,0-10.4,0-15.6,0c-0.7,0-1.4,0-2,0c-0.4,0-0.7,0-1.1,0.1c-0.1,0-0.2,0.2-0.2,0.4
		c0,0.2,0.1,0.3,0.2,0.4c0.5,0.5,1,1,1.5,1.4c0.6,0.5,1.1,1,1.7,1.5c0.9,0.8,1.4,1.8,1.5,3c0.1,0.8,0.1,1.6,0.1,2.4
		c0,5.6,0,11.2,0,16.8c0,11.7,0,23.4-0.1,35.1c0,1,0,2.1,0,3.1c0,0.2,0,0.5-0.1,0.7c0,0.1-0.3,0.3-0.4,0.3c-0.4-0.1-0.7-0.1-1.1-0.2
		C17,88.2,15,87.3,13.1,86c-2.8-1.9-5.4-4.1-7.8-6.3c-0.2-0.2-0.3-0.3-0.5-0.5c-0.2-0.2-0.2-0.4-0.2-0.7c0-0.4,0.1-0.7,0.4-1
		c0.2-0.2,0.4-0.5,0.7-0.7c1.4-1.3,2.9-2.4,4.5-3.5c0.3-0.2,0.5-0.3,0.8-0.5c0.1-0.1,0.2-0.1,0.3-0.2c0,0,0.1-0.1,0-0.2
		s-0.1-0.1-0.2-0.1c-0.7-0.1-1.4,0-2.2,0.1c-2.2,0.3-4.4,0.9-6.5,1.8c-0.2,0.1-0.4,0.2-0.7,0.3c-0.7,0.4-1.2,1-1.5,1.8
		C0.2,76.5,0.1,76.8,0,77c0.1,0.2,0.1,0.4,0.2,0.7c0.3,1.6,1,3,1.9,4.4c1.3,1.9,2.8,3.6,4.6,5.1c2.3,2,4.9,3.6,7.6,5
		c1.5,0.8,3.1,1.5,4.6,2.2c0.4,0.2,0.9,0.4,1.3,0.6c0.4,0.2,0.5,0.5,0.5,0.8c0,0.6,0,1.1,0,1.7c0,10.7,0,21.4,0,32.1
		c0,0.4,0,0.8,0,1.2c0,1.1-0.5,2-1.3,2.7c-1.2,1-2.4,2.1-3.6,3.2c-0.3,0.3-0.7,0.6-1,0.9c-0.1,0.1-0.2,0.3-0.3,0.4
		c-0.1,0.1,0,0.4,0.1,0.4c0.1,0.1,0.3,0.1,0.5,0.2c0.3,0,0.6,0.1,1,0.1c2.3,0.1,4.6,0.1,7,0.2c1.6,0.1,3.2,0.2,4.8,0.3
		c0.2,0,0.3,0,0.5,0.1c1.5,0.3,2.9,0.5,4.4,0.8c1.4,0.3,2.8,0.6,4.2,0.9c0.2,0,0.4,0.1,0.6,0.1c0.1,0,0.3-0.2,0.3-0.3
		c0-0.1-0.1-0.2-0.1-0.3c-0.2-0.3-0.5-0.6-0.8-0.9c-0.9-1-1.8-2.1-2.7-3.1c-0.5-0.6-0.8-1.4-0.9-2.2c0-0.5-0.1-1-0.1-1.4
		c0-2.8,0-5.7,0-8.5c0-9.1,0-18.2,0-27.3c0-0.4,0-0.9,0-1.3c0-0.2,0-0.4,0.1-0.6c0-0.3,0.2-0.4,0.5-0.5c2.5-0.5,4.8-1.6,7-2.7
		c0.5-0.2,0.9-0.5,1.4-0.7c1.3-0.6,2.5-1.4,3.7-2.2c0.9-0.6,1.8-1.3,2.6-1.9c0.7-0.5,1.4-1,2.2-1.5c0.2-0.1,0.4-0.2,0.6-0.3
		c0.3-0.1,0.7,0.1,0.7,0.4c0,0.5,0.1,1,0.1,1.4c0,4.8,0,9.6,0,14.4c0,9.5,0,19,0,28.5c0,1.9-0.1,3.8-0.5,5.7c-0.4,2.1-1,4.1-1.8,6.1
		c-0.8,1.8-2,3.4-3.7,4.5c-0.3,0.2-0.6,0.4-0.9,0.6c-0.2,0.1-0.4,0.3-0.6,0.5c-0.3,0.3-0.5,0.5-0.6,0.9c-0.2,0.5,0.1,1,0.6,1.1
		c0.3,0.1,0.6,0.1,1,0.1c1.4-0.1,2.8-0.1,4.2-0.2c1.2-0.1,2.4-0.2,3.6-0.3c2.9-0.1,5.8-0.1,8.6,0.1c1.5,0.1,2.9,0.3,4.4,0.8
		c0.8,0.3,1.7,0.5,2.5,0.7c0.5,0.1,1,0.3,1.5,0.3c0.4,0,0.8-0.1,1.1-0.3c0.3-0.2,0.4-0.5,0.4-0.8c0-0.2-0.1-0.5-0.3-0.6
		c-0.2-0.3-0.5-0.5-0.8-0.8c-0.7-0.6-1.4-1.3-2.1-1.9c-1.2-1.1-2-2.4-2.7-3.8c-0.8-1.8-1.2-3.6-1.4-5.6c-0.1-1.4-0.1-2.8-0.1-4.2
		c0-10.3,0-20.7,0-31c0-7.7,0-15.4,0-23.1c0-1,0.1-2,0.1-3c0-0.4,0.1-0.8,0.2-1.2c0.2-0.9,0.8-1.6,1.7-1.8c0.6-0.2,1.2-0.3,1.9-0.5
		c3.1-0.7,6.2-1.4,9.3-2c1.7-0.4,3.4-0.7,5.1-1c0.2,0,0.5,0,0.7,0c0.2,0,0.3,0.3,0.2,0.5c-0.1,0.1-0.1,0.2-0.2,0.3
		c-0.2,0.2-0.5,0.4-0.7,0.6c-1,0.9-2.1,1.9-3.1,2.8c-0.6,0.6-1.2,1.2-1.7,1.9c-0.7,1-1.1,2.1-1.3,3.3c-0.1,1-0.1,2,0,3
		c0.2,1.1,0.3,2.2,0.5,3.3c0.5,2.6,1,5.3,1.6,7.9c0.7,3.4,1.5,6.9,2.4,10.3c0.2,0.9,0.4,1.7,0.7,2.5c0.2,0.8,0.6,1.5,1.1,2.1
		c0.7,0.8,1.5,1.2,2.5,1.4c0.8,0.1,1.6,0,2.4-0.2c0.7-0.2,1.3-0.5,1.8-0.9c1.4-0.9,2.9-1.8,4.3-2.6c0.3-0.2,0.7-0.4,1.1-0.6
		c0.2-0.1,0.5-0.1,0.8-0.2c0.2,0,0.5,0.1,0.6,0.3c0.1,0.3,0.3,0.6,0.3,0.9c0.1,0.4,0.2,0.9,0.3,1.3c0.1,0.4,0.3,0.8,0.5,1.2
		c0.3,0.5,0.7,0.8,1.2,0.9c1.1,0.3,2.2,0.2,3.3-0.4c0.6-0.3,1.2-0.7,1.7-1.2c0.7-0.6,1.4-1.3,2-2.1c1.2-1.6,2.5-3,4-4.3
		c1.1-1,2.2-2,3.2-3.1c0.2-0.2,0.4-0.5,0.6-0.7C113.9,97.2,113.8,96.9,113.6,96.9z"/>
	<path class="st0" d="M410.7,114.1c0.2,0.1,0.4,0.2,0.7,0.2c4.4,1.2,8.8,2.2,13.4,2.9c1.8,0.3,3.6,0.5,5.5,0.7
		c1.3,0.1,2.6,0.3,3.9,0.4c1,0.1,2,0.1,3,0.1c0.1,0,0.2-0.1,0.1-0.2c0,0,0-0.1,0-0.1c-0.3-0.2-0.5-0.3-0.8-0.5c-1-0.5-1.9-1-2.8-1.7
		c-1.9-1.5-3.2-3.5-3.7-5.8c-0.2-0.9-0.4-1.8-0.5-2.7c-0.3-2.1-0.4-4.3-0.5-6.5c-0.1-3.4-0.1-6.9-0.2-10.3
		c-0.1-4.8-0.2-9.6-0.2-14.4l-0.2-14.2c-0.1-3.6-0.1-7.3-0.2-10.9c0-0.5,0-1,0.1-1.6c0-0.5,0.2-0.8,0.5-1.2c0.7-0.9,1.7-1,2.7-0.4
		c0.2,0.1,0.3,0.3,0.5,0.5c0.1,0.2,0.2,0.4,0.2,0.5c1.1,3.4,2.3,6.8,3.4,10.2c0.5,1.4,0.4,2-0.5,3.4c-0.4,0.6-0.8,1.1-1.1,1.7
		c-0.2,0.3-0.4,0.6-0.5,0.9c-0.2,0.4-0.3,0.9-0.1,1.4c0.1,0.2,0.3,0.3,0.5,0.3c0.2,0,0.3-0.1,0.4-0.2c0.3-0.2,0.6-0.4,0.9-0.7
		c2-1.7,3.8-3.4,5.6-5.3c1.3-1.4,2.6-2.8,3.7-4.2h0v-1.9c-0.1-0.1-0.2-0.1-0.2-0.2c-0.1-0.6-0.4-1.2-0.7-1.8l-4-8c-1-2-2-3.9-3-5.9
		c-0.2-0.4-0.4-0.8-0.7-1.1c-0.3-0.3-0.6-0.4-1-0.3c-0.2,0-0.4,0.1-0.6,0.2c-0.4,0.2-0.7,0.4-1,0.6c-1.2,0.7-2.4,1.5-3.5,2.3
		c-0.3,0.2-0.6,0.4-1,0.5c-0.3,0.1-0.8-0.1-0.9-0.5c-0.1-0.4-0.2-0.8-0.3-1.3c-0.1-1-0.2-1.9-0.3-2.9c-0.1-0.6-0.2-1.1-0.3-1.7
		c0-0.2-0.4-0.3-0.6-0.2c-0.4,0.2-0.7,0.5-1,0.9c-0.7,0.8-1.4,1.6-2.1,2.5c-3,3.5-5.9,7.1-8.9,10.6c-0.1,0.2-0.3,0.3-0.4,0.5
		c-0.1,0.1-0.1,0.2-0.2,0.3c-0.1,0.2,0,0.5,0.2,0.6c0.2,0.1,0.4,0.2,0.6,0.2c0.5,0.1,1,0.1,1.4,0.2c0.6,0.1,1,0.4,1.2,1.1
		c0.1,0.5,0.2,0.9,0.2,1.4c0,1.3,0,2.6,0,4c0.1,6.4,0.3,12.9,0.4,19.3c0,2.6,0.1,5.3,0.1,7.9c0.1,5.4,0.2,10.8,0.3,16.2
		c0,1.6-0.1,3.1-0.4,4.7c-0.3,1.4-0.7,2.7-1.4,3.9c-1.2,2.2-2.9,3.8-5.2,4.8c-0.2,0.1-0.4,0.2-0.5,0.3
		C410.7,113.9,410.7,113.9,410.7,114.1C410.7,114,410.7,114.1,410.7,114.1z"/>
	<polygon class="st0" points="0,77 0,77 0,77 	"/>
	<path class="st0" d="M216.2,49.5c-0.4-0.1-0.8-0.2-1.2-0.2c-1.8-0.1-3.7-0.2-5.5-0.3c-1.5-0.1-3-0.2-4.4-0.3
		c-1.4-0.1-2.9-0.2-4.3-0.2c-0.2,0-0.3,0-0.5,0c-0.1,0-0.1,0.1-0.1,0.2c0,0.1,0,0.2,0,0.2c0.2,0.2,0.5,0.5,0.7,0.7
		c0.6,0.5,1.2,1,1.8,1.5c0.7,0.6,0.9,1.3,0.7,2.1c-0.1,0.4-0.2,0.8-0.3,1.2c-0.4,1.3-0.8,2.5-1.2,3.8c-1,3-2.1,5.9-3.2,8.8
		c-2.2,5.7-4.4,11.3-6.8,16.9c-0.2,0.5-0.5,1-0.7,1.5c-0.1,0.2-0.2,0.3-0.4,0.5c-0.2,0.2-0.6,0.2-0.7-0.1c-0.1-0.3-0.2-0.6-0.3-0.9
		c-0.1-0.5-0.2-0.9-0.3-1.4c-0.4-2-0.7-4.1-1.1-6.1c-0.4-2-0.7-4.1-1.1-6.1l-1.1-6.1c-0.3-2-0.7-3.9-1-5.9c0-0.2,0-0.4-0.1-0.6
		c-0.1-0.9,0.2-1.6,0.9-2.2c0.5-0.3,0.9-0.8,1.4-1.1c0.1-0.1,0.2-0.2,0.2-0.4c0-0.1-0.2-0.2-0.4-0.2c-0.4,0-0.8,0-1.2,0
		c-1.9,0.1-3.8,0.2-5.8,0.3c-1.1,0.1-2.2,0.1-3.2,0.2c-0.8,0.1-1.7,0.1-2.5,0.2c-0.2,0-0.3,0.1-0.5,0.1c-0.2,0.1-0.3,0.4-0.2,0.5
		c0.1,0.1,0.1,0.2,0.2,0.3c0.3,0.3,0.6,0.6,0.9,0.9c0.8,0.7,1.3,1.6,1.5,2.7c0.3,1.4,0.5,2.7,0.8,4.1c0.8,3.9,1.7,7.9,2.5,11.8
		c0.9,4.2,1.8,8.4,2.7,12.7c0.4,2,0.8,3.9,1.2,5.9c0.3,1.3,0.1,2.5-0.5,3.6c-0.1,0.2-0.2,0.4-0.3,0.5c-0.4,0.7-0.7,1.3-1.1,2
		c-4.3,7.9-8.6,15.7-12.9,23.6c-0.1,0.2-0.3,0.5-0.4,0.7c-0.1,0.2-0.3,0.4-0.4,0.6c-0.3,0.4-0.7,0.6-1.2,0.7c-0.4,0-0.9,0.1-1.3,0
		c-0.9-0.1-1.8-0.1-2.8-0.2c-1.6-0.1-3.2-0.3-4.8-0.4c-1.1-0.1-2.2-0.2-3.3-0.3s-2.2-0.2-3.3-0.4c-1.2-0.1-2.3-0.2-3.5-0.3
		c-1.6-0.1-3.1-0.3-4.7-0.4l-3.3-0.3c-1.3-0.1-2.6-0.2-3.9-0.4c-0.9-0.1-1.8-0.2-2.7-0.3c-0.3,0-0.5-0.1-0.8-0.2
		c-0.4-0.2-0.6-0.5-0.7-0.9c-0.1-0.4-0.1-0.7,0.1-1.1c0.1-0.2,0.1-0.4,0.2-0.6c0.6-1.4,1.2-2.9,1.8-4.3c0.2-0.4,0.4-0.7,0.6-1.1
		c0.3-0.5,0.7-0.8,1.1-1c0.2-0.1,0.4-0.2,0.5-0.3l5-2.3c0.7-0.3,1.5-0.7,2.2-1c0.2-0.1,0.4-0.2,0.6-0.4c0.2-0.1,0.1-0.4,0-0.5
		c-0.3-0.1-0.5-0.2-0.8-0.2c-1.5-0.1-3-0.2-4.6-0.2c-0.2,0-0.4,0-0.6,0c-0.3,0-0.6,0-1,0c-1.2,0-2.3,0-3.5-0.1c-1.1-0.1-2,0.3-2.9,1
		c-1.2,1.1-2.5,2.2-3.7,3.2c-0.7,0.6-1.2,1.3-1.6,2.1c-1.1,2.2-2.1,4.3-3.2,6.5c-0.2,0.3-0.3,0.7-0.4,1c-0.1,0.3,0,0.6,0.2,0.9
		c0.1,0.2,0.3,0.4,0.5,0.5c0.4,0.3,0.7,0.5,1.1,0.7c4.7,2.7,9.7,4.6,15,5.5c1.9,0.3,3.9,0.7,5.8,1c2.2,0.4,4.5,0.8,6.8,0.9
		c1,0.1,1.9,0.2,2.9,0.3c1.3,0.1,2.5,0.3,3.8,0.4c1.3,0.1,2.6,0.2,4,0.3c2.5,0.2,4.9,0.4,7.4,0.6c0.6,0.1,1.2,0.1,1.8,0.2
		c0.7,0.1,1.4,0.1,2,0.2c0.3,0,0.6,0,0.8,0c0.2,0,0.5-0.1,0.6-0.3c0.2-0.2,0.4-0.5,0.6-0.7c0.2-0.3,0.4-0.7,0.6-1
		c4.5-8,9.1-15.9,13.6-23.9c4.5-7.7,8.6-15.7,12.3-23.8c2.7-5.9,5.3-11.8,7.9-17.8c2.1-4.9,4.3-9.8,6.4-14.8c0.2-0.5,0.4-1,0.6-1.6
		C216.8,49.9,216.6,49.6,216.2,49.5z"/>
	<path class="st0" d="M344.1,34.7c-0.1-0.9-0.1-1.6-0.1-2.2c0-0.6-0.4-0.9-1-1.1c-0.4-0.1-0.7-0.1-1.1-0.1c-1,0-2.1,0-3.1,0
		c-0.6,0-1.1-0.1-1.7-0.2c-0.3-0.1-0.6-0.3-0.7-0.6c-0.1-0.4-0.2-0.8-0.3-1.2c0-0.4,0-0.8-0.1-1.2c0-2.2,0-4.4-0.1-6.6
		c0-1.8-0.1-3.6-0.1-5.4c0-0.3,0-0.6-0.1-0.8c0-0.1-0.2-0.2-0.3-0.1c-0.1,0.1-0.2,0.1-0.3,0.2c-0.3,0.3-0.5,0.6-0.7,0.9
		c-1.7,2.3-3.6,4.3-5.6,6.2c-0.8,0.8-1.6,1.5-2.5,2.3c-1.2,1.2-2.4,2.3-3.6,3.5c-2.7,2.6-5.4,5.1-8.2,7.6c-0.2,0.2-0.5,0.4-0.7,0.6
		c-0.1,0.1-0.2,0.2-0.2,0.3c-0.2,0.2-0.1,0.5,0.2,0.6c0.5,0.1,1,0.2,1.5,0.2c1,0,2.1,0,3.1,0.1c1.5,0.1,3,0.1,4.4,0.2
		c0.9,0,1.3,0.5,1.4,1.3c0,0.2,0,0.5,0,0.7c0,0.4,0,0.9,0,1.3c0.1,22.4,0.1,44.7,0.2,67.1c0,0.4,0,0.9,0,1.3c0,0.3,0,0.6,0.1,1
		c0.1,0.5,0.3,1,0.8,1.3c0.3,0.2,0.5,0.4,0.8,0.6c4.1,2.9,8.3,5.7,12.4,8.6c0.4,0.3,0.9,0.6,1.3,0.9c0.2,0.2,0.5,0.3,0.8,0.3
		c0.2,0,0.3,0,0.5,0c0.4-0.1,0.6-0.5,0.5-0.8c-0.1-0.2-0.2-0.4-0.3-0.5c-0.2-0.2-0.4-0.5-0.7-0.7c-1.6-1.6-3.3-3.3-4.9-4.9
		c-0.2-0.2-0.4-0.4-0.6-0.6c-0.4-0.4-0.6-0.9-0.6-1.4c0-0.4,0-0.9,0-1.3c0.1-4.6,0.2-9.1,0.3-13.7c0.1-4.7,0.2-9.4,0.3-14.2
		c0-0.4,0-0.9,0-1.3c0.1-4.2,0.3-8.3,0.4-12.5c0.1-4.3,0.2-8.6,0.3-12.8l0-0.5l0.4-13.2c0-1.4,0.1-2.9,0.1-4.3c0-0.4,0-0.7,0.1-1.1
		c0.1-0.4,0.3-0.7,0.7-0.8c0.2-0.1,0.4-0.1,0.6-0.2c0.3,0,0.6,0,1,0c1,0,2,0,3-0.1c0.5,0,1-0.1,1.4-0.1c0.4-0.1,0.7-0.4,0.8-0.8
		c0-0.2,0-0.4,0-0.6C344.1,35.2,344.1,34.8,344.1,34.7L344.1,34.7z"/>
	<path class="st0" d="M350.2,46.4c0.4,0,0.7,0,1.1,0.1c0.4,0.1,0.6,0.3,0.8,0.7c0.2,0.5,0.2,0.9,0.2,1.4c0.1,3.2,0.1,6.5,0.2,9.7
		c0.1,4.6,0.2,9.3,0.2,13.9c0.1,5.1,0.2,10.2,0.2,15.4c0.1,6.3,0.2,12.6,0.2,18.9c0,2.6,0.1,5.1,0.1,7.7c0,0.4,0,0.7,0,1.1
		c0.1,0.8,0.4,1.4,1.2,1.8c0.2,0.1,0.4,0.2,0.6,0.3c0.6,0.3,1.2,0.6,1.8,1c5.6,3,11.3,6,16.9,9.1c0.6,0.3,1.1,0.6,1.7,0.9
		c0.2,0.1,0.4,0.2,0.6,0.2c0.6,0.2,1.2,0.1,1.7-0.4c0.2-0.3,0.5-0.5,0.7-0.8c0.3-0.5,0.6-0.9,0.9-1.4c1.3-1.9,2.6-3.9,3.8-5.8
		c0.7-1,1.5-1.9,2.6-2.4c0.3-0.2,0.6-0.4,0.9-0.6c0.1-0.1,0.2-0.2,0.2-0.4c0-0.1-0.2-0.3-0.4-0.4c-0.2,0-0.3-0.1-0.5-0.1
		c-1.8-0.1-3.7-0.2-5.5-0.3c-0.7,0-1.4,0-2-0.1h0c-0.8,0-1.3-0.1-1.9-0.1c-1.8-0.1-3.5-0.2-5.3-0.2c-0.3,0-0.6,0-1,0
		c-0.2,0-0.3,0.1-0.4,0.2c-0.2,0.1-0.2,0.4-0.1,0.5c0.1,0.2,0.3,0.3,0.6,0.4c0.6,0.2,1.2,0.3,1.7,0.4c2.2,0.3,4.3,0.7,6.5,1
		c0.4,0.1,0.9,0.2,1.3,0.4c0.3,0.2,0.4,0.5,0.3,0.8c-0.1,0.3-0.3,0.6-0.5,0.8c-0.8,1-1.6,2-2.4,3c-0.2,0.2-0.3,0.4-0.5,0.5
		c-0.5,0.4-1,0.5-1.6,0.3c-0.4-0.1-0.7-0.3-1.1-0.5c-1.8-0.9-3.5-1.9-5.3-2.9c-0.7-0.4-1.3-0.7-2-1.1c-0.3-0.2-0.5-0.3-0.8-0.5
		c-0.4-0.3-0.7-0.8-0.7-1.3c-0.1-1-0.2-2-0.2-3c-0.1-5.4-0.2-10.7-0.2-16.1c-0.1-3.7-0.1-7.4-0.1-11c-0.1-7.4-0.2-14.8-0.4-22.2
		l-0.2-12.7c0-1.2,0-2.3,0-3.5c0-0.5,0-1,0.2-1.5c0.1-0.4,0.4-0.7,0.8-0.8c0.4-0.1,0.9-0.2,1.3-0.2c1.5-0.1,3-0.2,4.4-0.3
		c0.5,0,1-0.1,1.5-0.2c0.5-0.1,0.8-0.4,0.8-0.9c0.1-0.8,0-1.7,0-2.5c0-0.1,0-0.2,0-0.2c-0.1-0.3-0.3-0.6-0.6-0.7
		c-0.4-0.2-0.9-0.2-1.3-0.2c-1,0-1.9,0-2.9,0c-0.8,0-1.6,0-2.4,0c-0.5,0-1-0.1-1.4-0.2c-0.3-0.1-0.5-0.3-0.6-0.6
		c0-0.1-0.1-0.2-0.1-0.3c-0.1-0.7-0.2-1.3-0.2-2c-0.1-3.2-0.2-6.5-0.3-9.7c-0.1-2-0.1-4-0.2-6c0-0.2,0-0.4,0-0.6
		c0-0.1,0-0.2-0.1-0.2c0-0.1-0.1-0.1-0.2-0.1c-0.1,0-0.2,0-0.2,0.1c-0.2,0.3-0.4,0.6-0.6,0.9c-1.4,2.5-3,4.9-4.6,7.3
		c-1.1,1.7-2.3,3.4-3.6,4.9c-2.3,2.7-4.6,5.4-6.9,8.2c-0.6,0.7-1.2,1.3-1.7,2c-0.2,0.2-0.3,0.5-0.5,0.7c-0.1,0.1,0,0.4,0.2,0.4
		c0.2,0.1,0.4,0.1,0.6,0.2c0.4,0,0.8,0,1.2,0.1C348,46.4,349.1,46.4,350.2,46.4z"/>
	<path class="st0" d="M315,100.8c0-0.6,0-1.3,0-1.9c0-7.5-0.1-15-0.1-22.5c0-2.1-0.1-4.2-0.2-6.2c-0.1-2.5-0.2-5-0.4-7.4
		c-0.1-2.2-0.2-4.3-0.3-6.5c0-1.2-0.4-2.3-1.2-3.2c-0.7-0.9-1.5-1.9-2.2-2.8c-0.5-0.6-1.1-1.2-1.6-1.7c-1.8-1.7-3.5-3.5-5.2-5.3
		c-0.3-0.3-0.6-0.6-0.9-0.9c-0.2-0.2-0.5-0.4-0.8-0.5c-0.8-0.3-1.5-0.2-2.2,0.2c-0.4,0.2-0.8,0.5-1.2,0.8c-2.7,1.8-5.4,3.4-8.3,4.8
		c-2.4,1.2-4.6,2.7-6.8,4.2c-0.2,0.2-0.5,0.3-0.7,0.5c-0.4,0.3-0.6,0.7-0.8,1.2c-0.1,0.4-0.2,0.7-0.2,1.1c-0.1,0.7-0.2,1.3-0.3,2
		c0,0.2-0.1,0.4-0.1,0.6c-0.1,0.3-0.3,0.4-0.5,0.3c-0.2-0.1-0.5-0.2-0.7-0.2c-0.5-0.1-1.1-0.3-1.6-0.3c-1-0.1-1.9-0.2-2.9-0.3
		c-0.6-0.1-1.1-0.1-1.7-0.2c-0.3-0.1-0.6-0.1-0.9-0.3c-0.2-0.1-0.4-0.3-0.4-0.5c0-0.5,0-1,0.1-1.4c0.3-2.4,0.6-4.8,1-7.3
		c0.3-2.1,0.5-4.2,0.6-6.3c0.2-3.1,0.3-6.2,0.2-9.4c-0.1-2.8-0.1-5.5-0.2-8.3c0-0.6,0-1.2,0-1.8c0-1.2-0.4-2.3-1.1-3.3
		c-0.1-0.2-0.2-0.3-0.3-0.5c-0.9-1.4-1.9-2.7-2.8-4.1c-2.6-3.9-5.1-7.7-7.7-11.6c-0.2-0.3-0.4-0.6-0.6-0.9c-0.2-0.3-0.5-0.5-0.7-0.8
		h-1.9c-0.2,0.1-0.3,0.1-0.5,0.2c-0.4,0-0.8,0.1-1.2,0.1c-0.9,0-1.8,0.1-2.8,0.1c-1.7,0.1-3.4,0.2-5.2,0.3c-1.8,0.1-3.5,0.2-5.3,0.3
		c-0.2,0-0.3,0-0.5,0c-1.7,0.1-3.4,0.3-5,0.4c-1.9,0.1-3.8,0.2-5.8,0.3c-1.3,0.1-2.6,0.2-4,0.2c-1.2,0.1-2.3,0.1-3.5,0.2
		c-0.7,0.1-1.4,0.1-2,0.2c0,0-0.1,0-0.1,0c-0.1,0-0.1,0.2-0.1,0.3c0.3,0.5,0.8,0.9,1.3,1.3c1.4,1.2,2.8,2.4,4.2,3.6
		c0.7,0.6,1.1,1.3,1.2,2.2c0,0.2,0,0.4,0.1,0.6c0.1,0.9,0.2,1.8,0.3,2.6c0.2,1.8,0.4,3.5,0.6,5.2c0.2,2.2,0.5,4.5,0.7,6.7
		c0.3,2.4,0.5,4.9,0.8,7.3c0.1,0.8,0.2,1.7,0.3,2.5c0.1,1.2,0.3,2.4,0.4,3.6c0.1,1.1,0.2,2.2,0.3,3.2c0.2,1.6,0.2,3.2,0.2,4.8
		c0,0.3,0,0.6-0.1,1c0,0.2-0.1,0.5-0.3,0.6c-0.1,0.1-0.3,0.2-0.4,0.2c-0.2,0-0.3-0.1-0.5-0.1c-0.4-0.2-0.7-0.5-1.1-0.8
		c-0.6-0.6-1.2-1.1-1.9-1.7c0,0-0.1,0-0.2,0c-0.1,0-0.2,0.1-0.2,0.3c0,0.2,0,0.3,0.1,0.5c0.8,4.1,1.6,8.2,2.4,12.4
		c0.7,3.8,1.4,7.5,2,11.3c0.1,1,0.3,2,0.4,3c0,0.3,0,0.6,0,0.8c0,0.1-0.3,0.3-0.4,0.2c-0.1-0.1-0.2-0.1-0.3-0.2
		c-0.5-0.4-0.9-0.9-1.3-1.4c-0.5-0.7-1-1.3-1.5-2c-0.2-0.3-0.4-0.5-0.6-0.7c0,0-0.1-0.1-0.2-0.1c-0.1,0-0.1,0.1-0.1,0.2
		c0,0.1,0,0.2,0,0.2c0.2,1.9,0.3,3.7,0.5,5.6c0.1,0.9,0.2,1.8,0.2,2.6c0.1,1.3,0.3,2.6,0.4,3.9c0.2,2.2,0.4,4.5,0.6,6.7
		c0.2,2.3,0.4,4.6,0.6,6.9c0.1,1,0.2,1.9,0.3,2.9c0.1,1.3,0.2,2.6,0.3,3.8c0.1,1.4,0.2,2.7,0.4,4.1c0.1,1,0.2,2,0.3,3
		c0.1,1.3,0.2,2.6,0.3,3.8c0.1,1.4,0.3,2.9,0.4,4.3l0.3,3.8c0.1,1.4,0.2,2.7,0.4,4.1c0.1,1.3,0.2,2.6,0.3,3.9c0.1,1,0.2,1.9,0.3,2.9
		c0.1,1.4,0.3,2.8,0.4,4.2c0.1,1.3,0.2,2.6,0.3,3.9c0.1,1,0.2,1.9,0.3,2.9c0.1,1.2,0.3,2.4,0.4,3.6c0.2,2.7,0.5,5.4,0.7,8.1
		c0.2,2.1,0.4,4.1,0.6,6.2c0,0.1,0.1,0.2,0.1,0.4c0.2-0.2,0.2-0.5,0.2-0.7c0-1.3,0.1-2.6,0.1-4c0-3.4,0.2-6.8,0.3-10.2
		c0-0.3,0-0.6,0.1-1c0.2-3.1,0.4-6.2,0.4-9.2c0-2.7,0-5.4,0.1-8.2c0.1-2.6,0.1-5.3,0.2-7.9c0-0.9,0.1-1.8,0.2-2.6
		c0.1-0.6,0.1-1.1,0.2-1.7c0-0.2,0.1-0.5,0.2-0.7c0.1-0.4,0.5-0.5,0.9-0.3c0.3,0.2,0.6,0.4,0.8,0.7c0.3,0.3,0.6,0.7,0.9,1.1
		c0.3,0.4,0.5,0.7,0.7,1.1c0.3,0.5,0.6,1,0.9,1.5c0.1,0.1,0.2,0.3,0.3,0.4c0,0,0.2,0.1,0.2,0c0.1,0,0.1-0.1,0.1-0.2
		c0-0.6,0-1.2,0-1.8c0-2-0.1-4.1-0.2-6.1c-0.1-4.2-0.2-8.5-0.2-12.7c0-2,0-4,0.1-6c0-0.7,0.1-1.4,0.2-2.2c0-0.2,0.1-0.4,0.2-0.5
		c0.1-0.1,0.2-0.1,0.3-0.1c0.1,0.1,0.3,0.2,0.4,0.3c0.2,0.3,0.4,0.6,0.6,0.9c0.5,1,0.9,2,1.3,3.1c0.5,1.4,1,2.9,1.5,4.3
		c0.1,0.3,0.2,0.6,0.3,0.9c0.1,0.3,0.3,0.5,0.3,0.4c0.1-0.1,0.1-0.3,0.1-0.4c0-0.3,0-0.6,0-0.8c-0.1-1-0.2-2.1-0.2-3.1
		c-0.2-3.2-0.3-6.5-0.5-9.7c-0.1-3.6-0.2-7.1-0.3-10.7c-0.1-2.2-0.1-4.5-0.1-6.7c0-3.2-0.1-6.5-0.1-9.7c0-0.2,0-0.5,0.1-0.7
		c0-0.1,0.1-0.1,0.2-0.2c0.1,0,0.2,0,0.2,0.1c0.1,0.2,0.3,0.3,0.4,0.5c0.7,1.1,1.4,2.2,2,3.3c1.1,1.7,2.1,3.5,3.2,5.2
		c0.2,0.3,0.4,0.7,0.7,1c0.3,0.4,0.8,0.7,1.4,0.6c0.4,0,0.7-0.1,1.1-0.1c2.7-0.6,5.3-1.4,7.9-2.5c1.1-0.5,2.2-1.2,3.1-2.1
		c0.9-0.9,1.8-1.9,2.5-3c0-0.1,0.1-0.1,0.1-0.2c0.1-0.2,0.3-0.2,0.5-0.2c0.2,0,0.5,0.1,0.7,0.1c0.7,0.1,1.3,0.3,2,0.4
		c0.9,0.1,1.8,0.2,2.7,0.3c0.6,0.1,1.3,0.1,1.9,0.3c0.4,0.1,0.9,0.2,1.2,0.4c0.4,0.2,0.6,0.6,0.6,1.1c0,1.1,0,2.2,0,3.4
		c-0.1,6.6-0.1,13.1,0.3,19.7c0.2,2.8,0.3,5.7,0.5,8.5c0.1,0.9,0.3,1.6,0.8,2.3c1.7,2.5,3.7,4.8,5.9,6.8c2.3,2,4.4,4.2,6.5,6.4
		c0.2,0.2,0.4,0.4,0.6,0.6c0.4,0.3,0.8,0.5,1.3,0.5c0.3,0,0.6-0.1,0.9-0.2c1-0.4,2-0.7,3.1-1.1c3.4-1.2,6.6-2.8,9.7-4.7
		c1.2-0.8,2.4-1.6,3.5-2.5C314.7,102.4,315,101.7,315,100.8z M259.3,58.2c-0.1,0.1-0.1,0.3-0.2,0.4c-0.6,0.8-1.2,1.5-1.8,2.3
		c-0.1,0.1-0.2,0.2-0.3,0.3c-0.4,0.3-0.8,0.3-1.2,0c-0.1-0.1-0.3-0.3-0.4-0.4c-0.9-1.3-1.8-2.6-2.6-3.9c-0.1-0.1-0.1-0.3-0.2-0.4
		c-0.1-0.3,0.1-0.6,0.4-0.6c0,0,0.1,0,0.2,0c0.1,0,0.2,0,0.4,0c1.6,0.3,3.1,0.7,4.7,1c0.2,0,0.5,0.1,0.7,0.2
		C259.3,57.4,259.5,57.9,259.3,58.2z M258.5,50.8c-0.2,0-0.4,0-0.6,0c-2,0-4,0.2-6,0.4c-1.2,0.1-2.5,0.3-3.7,0.6
		c-0.3,0.1-0.6,0.1-0.9,0.1c-0.2,0-0.3-0.1-0.4-0.3c0-0.1-0.1-0.2-0.1-0.3c0-0.3,0-0.6,0-0.8c-0.1-6.7-0.2-13.4-0.3-20h0v0
		l-0.2-13.8c0-2-0.1-4-0.1-6c0-0.2,0-0.5,0-0.7c0-0.5,0.2-0.7,0.7-0.7c0.8,0,1.6,0,2.4,0.1c1.2,0,2.5,0.1,3.7,0.2
		c1.4,0.1,2.8,0.1,4.2,0.2c0.2,0,0.3,0,0.5,0c0.3,0,0.6,0.3,0.7,0.6c0,0.2,0.1,0.3,0.1,0.5c0,0.2,0,0.4,0,0.6
		c0.1,3.1,0.2,6.2,0.3,9.2c0.1,3.3,0.2,6.6,0.4,9.8c0,0.2,0,0.5,0,0.7c0.1,3.6,0.2,7.2,0.3,10.8c0.1,2.2,0.2,4.3,0.2,6.5
		c0,0.4,0,0.7,0,1.1C259.7,50.2,259.3,50.7,258.5,50.8z M291.3,55.6V55c0-0.6,0.2-1.1,0.6-1.5c0.3-0.3,0.7-0.6,1-0.8
		c0.7-0.5,1.4-1,2.1-1.5c1.1-0.8,2.3-1.6,3.4-2.4c0.3-0.2,0.5-0.4,0.8-0.5c0.1-0.1,0.2-0.1,0.3-0.1c0.3-0.1,0.6,0.2,0.5,0.4
		c0,0.1,0,0.2-0.1,0.3c-0.4,1.3-0.9,2.5-1.6,3.6c-0.5,0.9-1.1,1.8-1.8,2.5c-0.9,0.9-1.8,1.7-2.8,2.4c-0.4,0.3-0.9,0.6-1.4,0.7
		c-0.4,0.1-0.9-0.1-1-0.5c0-0.1-0.1-0.2-0.1-0.3C291.4,56.7,291.3,56.2,291.3,55.6L291.3,55.6z M305.2,96.7c0,0.5,0,1,0,1.6
		c0,0.4-0.1,0.8-0.2,1.2c-0.2,0.6-0.6,1.1-1.2,1.4c-0.2,0.1-0.5,0.3-0.7,0.4c-1.5,0.8-3.1,1.6-4.6,2.4c-0.2,0.1-0.5,0.2-0.8,0.4
		c-0.6,0.3-1.2,0.1-1.7-0.3c-0.2-0.2-0.5-0.4-0.7-0.7c-0.9-1-1.9-2-2.8-3c-0.9-0.9-1.3-2-1.4-3.2c0-0.2,0-0.5,0-0.7l-0.2-16.3h0
		c-0.1-4.9-0.2-9.8-0.3-14.6c0-0.6,0-1.3,0-1.9c0-0.2,0-0.5,0-0.7c0.1-0.5,0.4-0.9,0.9-1.1c0.3-0.1,0.6-0.2,0.9-0.3
		c1.4-0.2,2.8-0.5,4.1-0.7c1.7-0.3,3.3-0.6,5-0.9c0.4-0.1,0.9-0.2,1.3-0.1c0.3,0,0.5,0.2,0.7,0.5c0.2,0.4,0.3,0.8,0.3,1.3
		c0.2,1.9,0.4,3.7,0.5,5.6c0.1,1.6,0.3,3.3,0.4,4.9c0.1,1.6,0.2,3.1,0.3,4.7C305.2,83.2,305.3,90,305.2,96.7z"/>
	<path class="st0" d="M152,98c0.2,0,0.3,0,0.5-0.1c2.1-0.5,4.2-0.8,6.4-1c2.1-0.2,4.2-0.2,6.2,0c0.8,0.1,1.5,0.1,2.3,0.2
		c0.1,0,0.2,0,0.4,0c0.3,0,0.5-0.3,0.3-0.6c-0.1-0.1-0.2-0.3-0.3-0.4c-0.6-0.9-1.2-1.8-1.8-2.7c-0.5-0.7-0.8-1.5-0.8-2.4
		c0-0.6,0-1.1,0-1.7l0-26.2v0h0c0-3.5,0-7,0-10.6c0-5.3,0-10.6,0-16c0-0.7,0.1-1.4,0.1-2c0-0.6,0.2-1.1,0.5-1.6
		c0.2-0.3,0.5-0.6,0.9-0.8c0.5-0.2,0.9-0.1,1.2,0.3c0.3,0.4,0.5,0.8,0.6,1.3c0.5,1.3,0.9,2.7,1.2,4.1c0.4,1.7,0.8,3.3,0.9,5.1
		c0.2,1.9,0.1,3.8-1.1,5.5c-0.1,0.1-0.1,0.2-0.1,0.3c-0.1,0.3,0,0.7,0.2,0.9c0.3,0.2,0.6,0.3,0.9,0.1c0.1-0.1,0.3-0.1,0.4-0.2
		c0.3-0.2,0.5-0.4,0.8-0.6c2.2-1.9,4.5-3.9,6.7-5.8c0.2-0.2,0.5-0.4,0.7-0.7c0.3-0.3,0.4-0.6,0.5-1c0.1-0.3,0.1-0.6,0-1
		c-0.1-0.5-0.3-0.9-0.5-1.4c-1.1-3-2.3-5.9-3.4-8.8c-0.7-1.9-1.5-3.8-2.2-5.7c-0.2-0.4-0.4-0.9-0.6-1.3c-0.2-0.3-0.6-0.4-0.8-0.2
		c-0.3,0.1-0.6,0.3-0.8,0.5c-0.5,0.4-1,0.8-1.5,1.2c-1,0.8-1.9,1.6-2.9,2.3c-0.3,0.3-0.7,0.5-1.1,0.8c-0.2,0.2-0.5,0-0.5-0.3
		c0-0.4,0-0.7,0-1.1c0-1.8,0-3.5,0-5.3c0-0.4,0-0.7,0-1.1c0-0.3,0.1-0.6-0.3-0.7c-0.3-0.1-0.4,0.1-0.6,0.3c-0.1,0.1-0.2,0.2-0.3,0.2
		c-0.7,0.6-1.5,1.2-2.2,1.8c-1.7,1.3-3.3,2.6-5,4c-0.8,0.6-1.6,1.3-2.4,2c-0.3,0.2-0.5,0.5-0.8,0.8c-0.5,0.6-0.4,1.1,0.2,1.5
		c0.3,0.2,0.5,0.3,0.8,0.5c0.2,0.2,0.5,0.3,0.7,0.5c0.5,0.4,0.7,0.8,0.7,1.4c0,0.5,0,1,0,1.6c-0.1,6.2-0.2,12.3-0.2,18.5
		c-0.1,11.1-0.2,22.2-0.3,33.3c0,1.4,0,2.8-0.1,4.2c0,0.7-0.1,1.4-0.3,2c-0.3,1-0.8,1.8-1.4,2.6c-0.7,0.8-1.4,1.7-2.1,2.5
		c-0.1,0.1-0.2,0.3-0.1,0.4C151.5,98,151.7,98,152,98z"/>
	<path class="st0" d="M128.1,103.4c1.8-0.1,3.7-0.2,5.5-0.3c1.4-0.1,2.9-0.2,4.3-0.2c0.2,0,0.3-0.1,0.5-0.1c0.1,0,0.3-0.3,0.2-0.4
		c-0.1-0.2-0.2-0.3-0.4-0.5c-0.4-0.3-0.8-0.7-1.2-1c-0.7-0.6-1.3-1.2-2-1.8c-0.8-0.8-1.2-1.7-1.2-2.8c0-1,0-1.9-0.1-2.9
		c-0.1-1.6-0.1-3.1-0.2-4.7c0-0.4,0-0.8,0-1.2c-0.1-3.3-0.3-6.6-0.4-9.8c-0.1-3.2-0.2-6.4-0.3-9.6c0-0.1,0-0.2,0-0.4h0l-0.4-10.2
		c-0.1-3.2-0.2-6.5-0.3-9.7c0-0.2,0-0.5,0-0.7c-0.1-2.6-0.2-5.1-0.3-7.7c0-1-0.1-0.9,0.9-1.5c0.3-0.2,0.6-0.3,0.9-0.4
		c0.3-0.1,0.7,0.1,0.8,0.4c0.1,0.3,0.2,0.7,0.3,1c0.5,2.3,1.1,4.5,1.6,6.8c0.5,2,0.9,4.1,1.4,6.1c0.2,0.7,0.2,1.5,0.3,2.3
		c0.1,0.6-0.1,1.2-0.4,1.7c-0.2,0.2-0.3,0.5-0.5,0.7c-0.1,0.2-0.2,0.4-0.2,0.6c-0.1,0.3,0.1,0.6,0.4,0.6c0.2,0.1,0.4,0,0.6,0
		c0.5-0.1,0.8-0.4,1.2-0.8c2.1-1.8,4.3-3.6,6.4-5.5c0.2-0.2,0.4-0.4,0.6-0.6c0.4-0.4,0.6-0.9,0.6-1.4c0-0.5,0-1-0.1-1.5
		c-0.4-1.7-0.8-3.4-1.3-5.1c-1-3.4-2.1-6.7-3.6-9.9c-0.4-0.9-0.9-1.9-1.4-2.8c-0.2-0.4-0.5-0.7-0.8-1.1c-0.2-0.2-0.5-0.3-0.8-0.2
		c-0.2,0.1-0.5,0.1-0.7,0.2c-0.3,0.2-0.7,0.4-1,0.6c-1.4,0.9-2.8,1.9-4.2,2.8c-0.3,0.2-0.5,0.3-0.8,0.5c-0.2,0.1-0.4,0-0.5-0.2
		c-0.1-0.4-0.1-0.8-0.2-1.2c-0.1-1.2-0.2-2.3-0.3-3.5c-0.1-1.2-0.2-2.4-0.3-3.6c0-0.1,0-0.2-0.1-0.4c-0.1-0.3-0.4-0.5-0.6-0.3
		c-0.3,0.2-0.7,0.4-1,0.7c-1.5,1.1-2.9,2.2-4.4,3.4c-2.8,2.1-5.6,4.3-8.4,6.4c-0.4,0.3-0.8,0.7-1.2,1c-0.1,0.1-0.1,0.4,0.1,0.5
		c0.1,0.1,0.3,0.1,0.5,0.1c1,0.1,2,0.2,3,0.2c0.7,0,1.4,0.1,2.1,0.2c0.6,0.1,0.9,0.5,1,1c0,0.3,0.1,0.6,0.1,0.8
		c0.1,4.9,0.3,9.8,0.4,14.6c0.1,2.9,0.1,5.8,0.2,8.8c0.1,4.2,0.2,8.3,0.3,12.5c0.1,3.9,0.2,7.8,0.3,11.8c0.1,3.5,0.1,7,0.2,10.6
		c0,0.5,0,1-0.1,1.4c-0.1,0.7-0.4,1.2-0.8,1.7c-0.2,0.3-0.5,0.5-0.7,0.8c-0.6,0.7-1.3,1.3-2,2c-0.2,0.2-0.4,0.4-0.5,0.6
		c-0.2,0.3-0.1,0.6,0.3,0.6c0.4,0,0.9,0,1.3,0c2.3-0.1,4.6-0.2,7-0.3C127.8,103.4,127.9,103.4,128.1,103.4z"/>
	<path class="st0" d="M379.7,101c1.2,1.7,2.4,3.4,3.6,5.1c0.4,0.6,0.9,1.2,1.4,1.8c0.6,0.8,1.4,1.2,2.4,1.4c1,0.2,2,0.2,3,0.3
		c1.4,0.1,2.9,0.2,4.3,0.2c0.8,0,1.5-0.3,2-0.9c0.3-0.4,0.5-0.7,0.8-1.1c2.4-3.5,4.8-6.9,7.2-10.4c0.2-0.2,0.3-0.5,0.5-0.7
		c0.3-0.5,0.4-1,0.2-1.6c-0.2-0.5-0.4-1-0.7-1.5c-1.2-1.9-2.5-3.7-3.8-5.6c-0.1-0.1-0.1-0.2-0.2-0.3c-0.1-0.1-0.1-0.1-0.2-0.2
		c-0.3-0.3-0.7-0.2-0.8,0.1c-0.1,0.4-0.3,0.8-0.4,1.1c-1.4,5.1-2.7,10.1-4.1,15.2c-0.1,0.3-0.2,0.7-0.3,1c-0.1,0.2-0.2,0.4-0.4,0.6
		c-0.2,0.2-0.5,0.3-0.8,0.1c-0.3-0.2-0.5-0.4-0.7-0.6c-1.3-1.4-2.7-2.9-4-4.3c-0.2-0.2-0.3-0.4-0.5-0.5c-0.3-0.4-0.5-0.8-0.6-1.3
		c-0.1-0.7-0.2-1.4-0.2-2.1c-0.1-3.6-0.2-7.1-0.3-10.7c-0.1-4.6-0.3-9.2-0.4-13.8c0-0.5,0-1,0-1.4c0-0.2,0.1-0.5,0.1-0.7
		c0.1-0.3,0.4-0.5,0.7-0.6c0.6,0,1.2,0,1.8,0.2c1.9,0.5,3.8,1,5.7,1.4c1.9,0.5,3.9,1,5.8,1.4c0.3,0.1,0.7,0.1,1.1,0.2
		c0.5,0,0.9-0.1,1.2-0.4c0.3-0.3,0.7-0.7,0.9-1.1c1.3-1.9,2.6-3.9,3.9-5.8c0.5-0.7,0.6-1.4,0.5-2.3c-0.2-0.8-0.4-1.6-0.7-2.4
		c-1.2-3.6-2.4-7.2-3.7-10.8c-0.2-0.6-0.4-1.2-0.6-1.8c-0.3-0.9-0.8-1.5-1.6-2c-0.1-0.1-0.3-0.2-0.4-0.3c-1.8-1.1-3.6-2.2-5.4-3.4
		c-1-0.6-2-1.3-3-1.9c-0.4-0.2-0.7-0.5-1.1-0.7c-0.7-0.4-1.4-0.3-2,0.1c-0.4,0.3-0.7,0.5-1,0.8c-0.6,0.6-1.2,1.1-1.8,1.7
		c-2.6,2.6-5.2,5.1-7.8,7.7c-0.2,0.2-0.5,0.5-0.7,0.7c-0.4,0.5-0.7,1-0.8,1.6c-0.1,0.7-0.2,1.4-0.2,2.1c0,1.4-0.1,2.8-0.1,4.2
		c-0.1,4.5-0.3,9-0.4,13.4c0,0.8,0,1.5,0,2.3h0l0,0c0,0.8-0.1,1.6-0.1,2.4c-0.1,4.7-0.2,9.4-0.4,14.2c0,1.2-0.1,2.4-0.1,3.6
		c0,1.2,0.3,2.2,1,3.1C378.2,98.9,378.9,99.9,379.7,101z M387.2,61c0.1-1.6,0.1-3.2,0.2-4.8l0,0h0c0.1-2.5,0.2-5,0.3-7.6
		c0-0.4,0.1-0.7,0.2-1.1c0.1-0.3,0.3-0.6,0.5-0.8c0.7-0.6,1.5-0.8,2.3-0.7c0.4,0,0.7,0.2,0.9,0.6c0.3,0.5,0.6,1.1,0.8,1.6
		c0.9,2.2,1.9,4.5,2.8,6.8c1.3,3.1,2.6,6.2,3.9,9.3c0.2,0.4,0.3,0.8,0.5,1.2c0,0.1,0.1,0.2,0.1,0.3c0.1,0.4-0.2,0.8-0.6,0.8
		c-0.3,0-0.6,0-0.8,0c-0.9-0.1-1.8-0.3-2.7-0.4c-1.8-0.3-3.6-0.6-5.5-0.9c-0.5-0.1-1-0.1-1.4-0.3c-0.3-0.1-0.6-0.2-0.9-0.3
		c-0.3-0.2-0.5-0.4-0.5-0.8c0-0.2,0-0.5,0-0.7C387.2,62.5,387.2,61.7,387.2,61z"/>
	<path class="st0" d="M439.2,112L439.2,112c0,0.3-0.1,0.6-0.1,1.1c0.1-0.5,0.4-0.8,0.6-0.8h1.1v4.2c0,0.2-0.2,0.4-0.7,0.4
		c0.4,0,1.2,0,1.9,0c-0.4,0-0.7-0.3-0.7-0.5v-4.2h1c0.3,0,0.6,0.3,0.7,0.8c0-0.2-0.1-1-0.1-1H439.2z"/>
	<path class="st0" d="M411,150.8L411,150.8v14.7c0,3.6-2.7,6.6-6.5,6.6c-4.3,0-6.7-3.1-6.7-7.5v-14l1.8-1.8h-8.4l1.8,1.8v14.7
		c0,5.7,4,9.6,10.4,9.6c6.6,0,10.6-4.6,10.6-9.7v-14.5l2-2H409L411,150.8z"/>
	<path class="st0" d="M449.1,116.5v-4.1c0-0.3,0.7-0.4,0.7-0.4h-1.2l-1.9,3.9l-1.9-3.9h-1.2c0.1,0,0.6,0,0.6,0.5c0,0.4,0,3.8,0,4.1
		c0,0.3-0.7,0.4-0.7,0.4h1.5c0,0-0.7-0.1-0.7-0.3v-3.9l2,4.2c0,0,1.8-3.6,2-4.1c0,0.4,0,3.3,0,3.7c0,0.4-0.6,0.5-0.6,0.5h1.8
		C449.7,116.9,449.1,116.8,449.1,116.5z"/>
	<path class="st0" d="M360.2,151L360.2,151c2.6,0,5.2,1.3,7.1,3.8l1.5,1.9l-0.8-8.1l-1.9,1.9c-1.9-1.2-4.2-2-6.6-2
		c-7.8,0-13.3,5.6-13.3,13.2c0,7.2,5.5,13.2,13.3,13.2c2.5,0,4.7-0.8,6.6-2l1.9,1.9l0.8-7.8l-1.5,1.9c-1.9,2.4-4.4,3.4-7.1,3.4
		c-5.3,0-9-4.8-9-10.7C351.1,155.9,354.9,151,360.2,151z"/>
	<path class="st0" d="M433.3,161.2c2.9-1,4.7-3.1,4.7-5.8c0-3.8-3.8-6.6-9-6.6h-10.6l1.9,1.9v22.4l-1.9,1.9h12.1c5.2,0,9-3.1,9-7.3
		C439.6,164.5,437,162,433.3,161.2z M425.2,151h3.1c3.1,0,5.1,2.1,5.1,4.7c0,2.6-2,4.7-5.1,4.7h-3.1V151z M429.8,172.8L429.8,172.8
		h-6l1.4-1.5v-8.7h4.6c3,0,4.9,2.3,4.9,5.1C434.7,170.6,432.8,172.8,429.8,172.8z"/>
	<polygon class="st0" points="376.4,172.6 377.8,171.2 377.8,150.7 379.6,148.8 379.6,148.8 371.1,148.8 372.9,150.7 372.9,173.1
		371.1,175 389.7,175 390.1,168.5 390.1,168.5 386.9,172.6 	"/>
	<polygon class="st0" points="336.4,148.8 329.3,148.8 331.4,150.9 331.4,168.5 317.7,148.8 311.5,148.8 313.5,151.3 313.5,172.9
		311.4,175 318.5,175 316.5,172.9 316.5,155.4 330.1,175 336.1,175 334.4,172.8 334.4,150.9 	"/>
	<path class="st0" d="M299.5,150.5l1.7-1.7h-8.4l1.8,1.7l-5.8,13.9H286l1.9,2.2l-2.8,6.7l-1.8,1.7h6.7l-1.8-1.9l2.6-6.5h11.9
		l-1.2,1.3l2,5.4l-1.7,1.7h8.6l-1.6-1.7L299.5,150.5z M291.6,164.5L291.6,164.5l4.3-10.7l4.3,10.7H291.6z"/>
	<polygon class="st0" points="283.4,165 283.4,165.1 283.4,158.1 280.8,160.4 276.1,160.4 276.1,151.2 284.1,151.2 284.2,151.4
		287.6,155.7 287.6,155.7 287.6,155.7 287.1,148.8 269.4,148.8 269.4,148.9 271.2,150.7 271.2,173.1 269.8,174.6 269.4,175
		277.9,175 276.1,173.1 276.1,164.1 276.1,164.1 274.7,162.6 280.8,162.6 	"/>
</g>
</svg>
